# xmcd CD database file
#
# Track frame offsets:
#	150
#	31692
#	54440
#	98770
#	134992
#	160057
#	217752
#
# Disc length: 3303 seconds
#
# Revision: 0
# Processed by: cddbd v1.5PL3 Copyright (c) Steve Scherf et al.
# Submitted via: CDex 1.50Beta3
#
DISCID=550ce507
DTITLE=Kirk Lightsey - Isotope
DYEAR=1983
DGENRE=Jazz
TTITLE0=Isotope
TTITLE1=Oleo
TTITLE2=Pee Wee
TTITLE3=Witch Hunt
TTITLE4=A Monk's Dream
TTITLE5=Little Daphne
TTITLE6=I'll Never Stop Loving You
EXTD=YEAR: 1983
EXTT0=
EXTT1=
EXTT2=
EXTT3=
EXTT4=
EXTT5=
EXTT6=
PLAYORDER=
